# xmcd
#
# Track frame offsets:
#	150
#	25177
#	67940
#	84883
#	107401
#	124886
#	153503
#	175781
#	200903
#	222508
#	246509
#
# Disc length: 3584 seconds
#
# Revision: 1
# Processed by: cddbd v1.5.1PL0 Copyright (c) Steve Scherf et al.
# Submitted via: EasyCDDAExtractor 8.0.2.1
#
DISCID=960dfe0b
DTITLE=Dio - Carling Academy Glasgow 14-10-05 Disc 1
DYEAR=2005
DGENRE=Hard Rock
TTITLE0=Tarot Woman 
TTITLE1=The Sign Of The Southern Cross - One Night In The City 
TTITLE2=Stand Up And Shout
TTITLE3=Holy Diver
TTITLE4=Gypsy
TTITLE5=Drum Solo
TTITLE6=Caught In The Middle
TTITLE7=Don't Talk To Strangers
TTITLE8=Straight Through the Heart
TTITLE9=Invisible
TTITLE10=Rainbow In The Dark
EXTD=
EXTT0=
EXTT1=
EXTT2=
EXTT3=
EXTT4=
EXTT5=
EXTT6=
EXTT7=
EXTT8=
EXTT9=
EXTT10=
PLAYORDER=
